<mxfile host="app.diagrams.net" modified="2023-01-25T10:43:17.884Z" agent="5.0 (Windows NT 10.0; Win64; x64) AppleWebKit/537.36 (KHTML, like Gecko) Chrome/109.0.0.0 Safari/537.36" etag="tmD4Cg5GtzBwdQ6M9B0u" version="20.7.4" type="github">
  <diagram id="5KzjVwvkJJMhZy6UYnWM" name="Page-1">
    <mxGraphModel dx="1882" dy="1569" grid="1" gridSize="10" guides="1" tooltips="1" connect="1" arrows="1" fold="1" page="1" pageScale="1" pageWidth="850" pageHeight="1100" math="0" shadow="0">
      <root>
        <mxCell id="0" />
        <mxCell id="1" parent="0" />
        <mxCell id="ea2UamJm-fBT6arOsuC3-1" value="&lt;b&gt;AWS Cloud&lt;/b&gt;" style="points=[[0,0],[0.25,0],[0.5,0],[0.75,0],[1,0],[1,0.25],[1,0.5],[1,0.75],[1,1],[0.75,1],[0.5,1],[0.25,1],[0,1],[0,0.75],[0,0.5],[0,0.25]];outlineConnect=0;gradientColor=none;html=1;whiteSpace=wrap;fontSize=12;fontStyle=0;container=1;pointerEvents=0;collapsible=0;recursiveResize=0;shape=mxgraph.aws4.group;grIcon=mxgraph.aws4.group_aws_cloud_alt;strokeColor=#232F3E;fillColor=none;verticalAlign=top;align=left;spacingLeft=30;fontColor=#232F3E;dashed=0;strokeWidth=2;rotation=0;fillStyle=auto;shadow=0;sketch=0;" parent="1" vertex="1">
          <mxGeometry x="10" y="140" width="840" height="940" as="geometry" />
        </mxCell>
        <mxCell id="B55D7Bt2RnhnYhkycpw2-30" value="" style="outlineConnect=0;dashed=0;verticalLabelPosition=bottom;verticalAlign=top;align=center;html=1;shape=mxgraph.aws3.bucket_with_objects;fillColor=#E05243;gradientColor=none;" parent="ea2UamJm-fBT6arOsuC3-1" vertex="1">
          <mxGeometry x="780" y="490" width="40" height="40" as="geometry" />
        </mxCell>
        <mxCell id="B55D7Bt2RnhnYhkycpw2-79" value="&lt;b&gt;S3 BUCKET&lt;/b&gt;" style="text;html=1;strokeColor=none;fillColor=none;align=center;verticalAlign=middle;whiteSpace=wrap;rounded=0;" parent="ea2UamJm-fBT6arOsuC3-1" vertex="1">
          <mxGeometry x="770" y="460" width="60" height="30" as="geometry" />
        </mxCell>
        <mxCell id="1hkkDkTIQHTTeldb6SN9-4" value="" style="aspect=fixed;html=1;points=[];align=center;image;fontSize=12;image=img/lib/azure2/compute/Disks_Snapshots.svg;" parent="ea2UamJm-fBT6arOsuC3-1" vertex="1">
          <mxGeometry x="780.73" y="550" width="39.27" height="41" as="geometry" />
        </mxCell>
        <mxCell id="1hkkDkTIQHTTeldb6SN9-8" value="&lt;b&gt;&lt;font style=&quot;font-size: 10px;&quot;&gt;DailyBackup&lt;/font&gt;&lt;/b&gt;" style="text;html=1;strokeColor=none;fillColor=none;align=center;verticalAlign=middle;whiteSpace=wrap;rounded=0;" parent="ea2UamJm-fBT6arOsuC3-1" vertex="1">
          <mxGeometry x="765" y="580" width="70" height="30" as="geometry" />
        </mxCell>
        <mxCell id="yldp62qtClLwb7akA_jN-5" value="" style="outlineConnect=0;dashed=0;verticalLabelPosition=bottom;verticalAlign=top;align=center;html=1;shape=mxgraph.aws3.waf;fillColor=#759C3E;gradientColor=none;" parent="ea2UamJm-fBT6arOsuC3-1" vertex="1">
          <mxGeometry x="341" y="-30" width="47" height="43" as="geometry" />
        </mxCell>
        <mxCell id="B55D7Bt2RnhnYhkycpw2-1" value="&lt;span style=&quot;color: rgb(51, 51, 51); font-family: Arial, Verdana; background-color: rgb(255, 255, 255);&quot;&gt;&lt;b&gt;Asia Pacific(ap-southeast-1)&lt;/b&gt;&lt;/span&gt;" style="points=[[0,0],[0.25,0],[0.5,0],[0.75,0],[1,0],[1,0.25],[1,0.5],[1,0.75],[1,1],[0.75,1],[0.5,1],[0.25,1],[0,1],[0,0.75],[0,0.5],[0,0.25]];outlineConnect=0;gradientColor=none;html=1;whiteSpace=wrap;fontSize=12;fontStyle=0;container=1;pointerEvents=0;collapsible=0;recursiveResize=0;shape=mxgraph.aws4.group;grIcon=mxgraph.aws4.group_region;strokeColor=#63C1FF;fillColor=none;verticalAlign=top;align=left;spacingLeft=30;fontColor=#147EBA;dashed=1;strokeWidth=2;" parent="1" vertex="1">
          <mxGeometry x="20" y="170" width="760" height="900" as="geometry" />
        </mxCell>
        <mxCell id="B55D7Bt2RnhnYhkycpw2-31" value="" style="outlineConnect=0;dashed=0;verticalLabelPosition=bottom;verticalAlign=top;align=center;html=1;shape=mxgraph.aws3.email_notification;fillColor=#D9A741;gradientColor=none;" parent="B55D7Bt2RnhnYhkycpw2-1" vertex="1">
          <mxGeometry x="696" y="250" width="50" height="60" as="geometry" />
        </mxCell>
        <mxCell id="B55D7Bt2RnhnYhkycpw2-44" value="" style="outlineConnect=0;dashed=0;verticalLabelPosition=bottom;verticalAlign=top;align=center;html=1;shape=mxgraph.aws3.alarm;fillColor=#759C3E;gradientColor=none;" parent="B55D7Bt2RnhnYhkycpw2-1" vertex="1">
          <mxGeometry x="692" y="377" width="54" height="66" as="geometry" />
        </mxCell>
        <mxCell id="B55D7Bt2RnhnYhkycpw2-46" value="" style="edgeStyle=orthogonalEdgeStyle;html=1;endArrow=block;elbow=vertical;startArrow=none;endFill=1;strokeColor=#545B64;rounded=1;entryX=0.5;entryY=1;entryDx=0;entryDy=0;entryPerimeter=0;" parent="B55D7Bt2RnhnYhkycpw2-1" target="B55D7Bt2RnhnYhkycpw2-30" edge="1">
          <mxGeometry width="100" relative="1" as="geometry">
            <mxPoint x="680" y="740" as="sourcePoint" />
            <mxPoint x="780" y="740" as="targetPoint" />
          </mxGeometry>
        </mxCell>
        <mxCell id="B55D7Bt2RnhnYhkycpw2-47" value="" style="edgeStyle=orthogonalEdgeStyle;html=1;endArrow=none;elbow=vertical;startArrow=block;startFill=1;strokeColor=#545B64;rounded=0;entryX=0.5;entryY=0.42;entryDx=0;entryDy=0;entryPerimeter=0;exitX=0.5;exitY=1;exitDx=0;exitDy=0;exitPerimeter=0;" parent="B55D7Bt2RnhnYhkycpw2-1" source="B55D7Bt2RnhnYhkycpw2-31" target="B55D7Bt2RnhnYhkycpw2-44" edge="1">
          <mxGeometry width="100" relative="1" as="geometry">
            <mxPoint x="721" y="320" as="sourcePoint" />
            <mxPoint x="778" y="361" as="targetPoint" />
            <Array as="points">
              <mxPoint x="721" y="405" />
            </Array>
          </mxGeometry>
        </mxCell>
        <mxCell id="B55D7Bt2RnhnYhkycpw2-77" value="&lt;b&gt;email notification&lt;/b&gt;" style="text;html=1;strokeColor=none;fillColor=none;align=center;verticalAlign=middle;whiteSpace=wrap;rounded=0;" parent="B55D7Bt2RnhnYhkycpw2-1" vertex="1">
          <mxGeometry x="691" y="220" width="60" height="30" as="geometry" />
        </mxCell>
        <mxCell id="B55D7Bt2RnhnYhkycpw2-78" value="&lt;b&gt;CLOUD WATCH&lt;br&gt;ALARM&lt;/b&gt;" style="text;html=1;strokeColor=none;fillColor=none;align=center;verticalAlign=middle;whiteSpace=wrap;rounded=0;" parent="B55D7Bt2RnhnYhkycpw2-1" vertex="1">
          <mxGeometry x="689" y="460" width="60" height="30" as="geometry" />
        </mxCell>
        <mxCell id="yldp62qtClLwb7akA_jN-2" value="" style="dashed=0;outlineConnect=0;html=1;align=center;labelPosition=center;verticalLabelPosition=bottom;verticalAlign=top;shape=mxgraph.webicons.sms;fillColor=#86D466;gradientColor=#42B418" parent="B55D7Bt2RnhnYhkycpw2-1" vertex="1">
          <mxGeometry x="699" y="80" width="40" height="35" as="geometry" />
        </mxCell>
        <mxCell id="yldp62qtClLwb7akA_jN-3" value="" style="edgeStyle=orthogonalEdgeStyle;html=1;endArrow=block;elbow=vertical;startArrow=none;endFill=1;strokeColor=#545B64;rounded=1;" parent="B55D7Bt2RnhnYhkycpw2-1" target="yldp62qtClLwb7akA_jN-2" edge="1">
          <mxGeometry width="100" relative="1" as="geometry">
            <mxPoint x="680" y="200" as="sourcePoint" />
            <mxPoint x="780" y="200" as="targetPoint" />
          </mxGeometry>
        </mxCell>
        <mxCell id="yldp62qtClLwb7akA_jN-4" value="&lt;b&gt;sms notification&lt;/b&gt;" style="text;html=1;strokeColor=none;fillColor=none;align=center;verticalAlign=middle;whiteSpace=wrap;rounded=0;" parent="B55D7Bt2RnhnYhkycpw2-1" vertex="1">
          <mxGeometry x="686" y="50" width="60" height="30" as="geometry" />
        </mxCell>
        <mxCell id="B55D7Bt2RnhnYhkycpw2-2" value="&lt;span style=&quot;font-weight: normal;&quot;&gt;VPC&lt;/span&gt;" style="points=[[0,0],[0.25,0],[0.5,0],[0.75,0],[1,0],[1,0.25],[1,0.5],[1,0.75],[1,1],[0.75,1],[0.5,1],[0.25,1],[0,1],[0,0.75],[0,0.5],[0,0.25]];outlineConnect=0;gradientColor=none;html=1;whiteSpace=wrap;fontSize=12;fontStyle=1;container=1;pointerEvents=0;collapsible=0;recursiveResize=0;shape=mxgraph.aws4.group;grIcon=mxgraph.aws4.group_vpc;strokeColor=#248814;fillColor=none;verticalAlign=top;align=left;spacingLeft=30;fontColor=#AAB7B8;dashed=0;strokeWidth=2;" parent="1" vertex="1">
          <mxGeometry x="30" y="210" width="670" height="850" as="geometry" />
        </mxCell>
        <mxCell id="B55D7Bt2RnhnYhkycpw2-3" value="ap-southeast-1a" style="fillColor=none;strokeColor=#147EBA;dashed=1;verticalAlign=top;fontStyle=0;fontColor=#147EBA;strokeWidth=2;" parent="B55D7Bt2RnhnYhkycpw2-2" vertex="1">
          <mxGeometry x="110" y="590" width="490" height="240" as="geometry" />
        </mxCell>
        <mxCell id="B55D7Bt2RnhnYhkycpw2-15" value="Private subnet" style="points=[[0,0],[0.25,0],[0.5,0],[0.75,0],[1,0],[1,0.25],[1,0.5],[1,0.75],[1,1],[0.75,1],[0.5,1],[0.25,1],[0,1],[0,0.75],[0,0.5],[0,0.25]];outlineConnect=0;gradientColor=none;html=1;whiteSpace=wrap;fontSize=12;fontStyle=0;container=1;pointerEvents=0;collapsible=0;recursiveResize=0;shape=mxgraph.aws4.group;grIcon=mxgraph.aws4.group_security_group;grStroke=0;strokeColor=#147EBA;fillColor=#E6F2F8;verticalAlign=top;align=left;spacingLeft=30;fontColor=#147EBA;dashed=0;" parent="B55D7Bt2RnhnYhkycpw2-2" vertex="1">
          <mxGeometry x="140" y="620" width="430" height="190" as="geometry" />
        </mxCell>
        <mxCell id="B55D7Bt2RnhnYhkycpw2-16" value="Security group" style="fillColor=none;strokeColor=#DD3522;verticalAlign=top;fontStyle=0;fontColor=#DD3522;strokeWidth=2;" parent="B55D7Bt2RnhnYhkycpw2-15" vertex="1">
          <mxGeometry x="20" y="30" width="390" height="140" as="geometry" />
        </mxCell>
        <mxCell id="B55D7Bt2RnhnYhkycpw2-22" value="" style="outlineConnect=0;dashed=0;verticalLabelPosition=bottom;verticalAlign=top;align=center;html=1;shape=mxgraph.aws3.rds_db_instance;fillColor=#2E73B8;gradientColor=none;" parent="B55D7Bt2RnhnYhkycpw2-15" vertex="1">
          <mxGeometry x="160" y="60" width="110" height="66" as="geometry" />
        </mxCell>
        <mxCell id="B55D7Bt2RnhnYhkycpw2-75" value="&lt;b&gt;DMS-DB&lt;/b&gt;" style="text;html=1;strokeColor=none;fillColor=none;align=center;verticalAlign=middle;whiteSpace=wrap;rounded=0;" parent="B55D7Bt2RnhnYhkycpw2-15" vertex="1">
          <mxGeometry x="185" y="126" width="60" height="30" as="geometry" />
        </mxCell>
        <mxCell id="NSeuikukPgtGO4ZoCnCu-7" value="&lt;b&gt;m5.4xlarge&lt;/b&gt;" style="text;html=1;strokeColor=none;fillColor=none;align=center;verticalAlign=middle;whiteSpace=wrap;rounded=0;" vertex="1" parent="B55D7Bt2RnhnYhkycpw2-15">
          <mxGeometry x="160" y="140" width="110" height="30" as="geometry" />
        </mxCell>
        <mxCell id="B55D7Bt2RnhnYhkycpw2-21" value="" style="outlineConnect=0;dashed=0;verticalLabelPosition=bottom;verticalAlign=top;align=center;html=1;shape=mxgraph.aws3.classic_load_balancer;fillColor=#F58536;gradientColor=none;" parent="B55D7Bt2RnhnYhkycpw2-2" vertex="1">
          <mxGeometry x="310" y="40" width="69" height="72" as="geometry" />
        </mxCell>
        <mxCell id="B55D7Bt2RnhnYhkycpw2-53" value="" style="sketch=0;outlineConnect=0;fontColor=#232F3E;gradientColor=none;fillColor=#4D27AA;strokeColor=none;dashed=0;verticalLabelPosition=bottom;verticalAlign=top;align=center;html=1;fontSize=12;fontStyle=0;aspect=fixed;pointerEvents=1;shape=mxgraph.aws4.internet_gateway;" parent="B55D7Bt2RnhnYhkycpw2-2" vertex="1">
          <mxGeometry x="200" y="-30" width="53" height="53" as="geometry" />
        </mxCell>
        <mxCell id="B55D7Bt2RnhnYhkycpw2-55" value="ap-southeast-1a" style="fillColor=none;strokeColor=#147EBA;dashed=1;verticalAlign=top;fontStyle=0;fontColor=#147EBA;strokeWidth=2;" parent="B55D7Bt2RnhnYhkycpw2-2" vertex="1">
          <mxGeometry x="40" y="150" width="270" height="390" as="geometry" />
        </mxCell>
        <mxCell id="B55D7Bt2RnhnYhkycpw2-56" value="ap-southeast-1b" style="fillColor=none;strokeColor=#147EBA;dashed=1;verticalAlign=top;fontStyle=0;fontColor=#147EBA;strokeWidth=2;" parent="B55D7Bt2RnhnYhkycpw2-2" vertex="1">
          <mxGeometry x="390" y="150" width="240" height="390" as="geometry" />
        </mxCell>
        <mxCell id="B55D7Bt2RnhnYhkycpw2-57" value="Public subnet" style="points=[[0,0],[0.25,0],[0.5,0],[0.75,0],[1,0],[1,0.25],[1,0.5],[1,0.75],[1,1],[0.75,1],[0.5,1],[0.25,1],[0,1],[0,0.75],[0,0.5],[0,0.25]];outlineConnect=0;gradientColor=none;html=1;whiteSpace=wrap;fontSize=12;fontStyle=0;container=1;pointerEvents=0;collapsible=0;recursiveResize=0;shape=mxgraph.aws4.group;grIcon=mxgraph.aws4.group_security_group;grStroke=0;strokeColor=#248814;fillColor=#E9F3E6;verticalAlign=top;align=left;spacingLeft=30;fontColor=#248814;dashed=0;" parent="B55D7Bt2RnhnYhkycpw2-2" vertex="1">
          <mxGeometry x="60" y="190" width="230" height="330" as="geometry" />
        </mxCell>
        <mxCell id="B55D7Bt2RnhnYhkycpw2-59" value="Public subnet" style="points=[[0,0],[0.25,0],[0.5,0],[0.75,0],[1,0],[1,0.25],[1,0.5],[1,0.75],[1,1],[0.75,1],[0.5,1],[0.25,1],[0,1],[0,0.75],[0,0.5],[0,0.25]];outlineConnect=0;gradientColor=none;html=1;whiteSpace=wrap;fontSize=12;fontStyle=0;container=1;pointerEvents=0;collapsible=0;recursiveResize=0;shape=mxgraph.aws4.group;grIcon=mxgraph.aws4.group_security_group;grStroke=0;strokeColor=#248814;fillColor=#E9F3E6;verticalAlign=top;align=left;spacingLeft=30;fontColor=#248814;dashed=0;" parent="B55D7Bt2RnhnYhkycpw2-2" vertex="1">
          <mxGeometry x="420" y="185" width="190" height="335" as="geometry" />
        </mxCell>
        <mxCell id="B55D7Bt2RnhnYhkycpw2-61" value="Security group" style="fillColor=none;strokeColor=#DD3522;verticalAlign=top;fontStyle=0;fontColor=#DD3522;strokeWidth=2;" parent="B55D7Bt2RnhnYhkycpw2-2" vertex="1">
          <mxGeometry x="460" y="220" width="120" height="280" as="geometry" />
        </mxCell>
        <mxCell id="B55D7Bt2RnhnYhkycpw2-65" value="" style="sketch=0;outlineConnect=0;fontColor=#232F3E;gradientColor=none;fillColor=#D45B07;strokeColor=none;dashed=0;verticalLabelPosition=bottom;verticalAlign=top;align=center;html=1;fontSize=12;fontStyle=0;aspect=fixed;pointerEvents=1;shape=mxgraph.aws4.r5_instance;" parent="B55D7Bt2RnhnYhkycpw2-2" vertex="1">
          <mxGeometry x="491" y="260" width="48" height="48" as="geometry" />
        </mxCell>
        <mxCell id="B55D7Bt2RnhnYhkycpw2-67" value="Security group" style="fillColor=none;strokeColor=#DD3522;verticalAlign=top;fontStyle=0;fontColor=#DD3522;strokeWidth=2;" parent="B55D7Bt2RnhnYhkycpw2-2" vertex="1">
          <mxGeometry x="100" y="384" width="140" height="120" as="geometry" />
        </mxCell>
        <mxCell id="B55D7Bt2RnhnYhkycpw2-69" value="Security group" style="fillColor=none;strokeColor=#DD3522;verticalAlign=top;fontStyle=0;fontColor=#DD3522;strokeWidth=2;" parent="B55D7Bt2RnhnYhkycpw2-2" vertex="1">
          <mxGeometry x="100" y="224" width="140" height="136" as="geometry" />
        </mxCell>
        <mxCell id="B55D7Bt2RnhnYhkycpw2-70" value="" style="sketch=0;outlineConnect=0;fontColor=#232F3E;gradientColor=none;fillColor=#D45B07;strokeColor=none;dashed=0;verticalLabelPosition=bottom;verticalAlign=top;align=center;html=1;fontSize=12;fontStyle=0;aspect=fixed;pointerEvents=1;shape=mxgraph.aws4.r5_instance;" parent="B55D7Bt2RnhnYhkycpw2-2" vertex="1">
          <mxGeometry x="146" y="250" width="48" height="48" as="geometry" />
        </mxCell>
        <mxCell id="B55D7Bt2RnhnYhkycpw2-72" value="&lt;b&gt;DMS-Dev-UAT&lt;/b&gt;" style="text;html=1;strokeColor=none;fillColor=none;align=center;verticalAlign=middle;whiteSpace=wrap;rounded=0;" parent="B55D7Bt2RnhnYhkycpw2-2" vertex="1">
          <mxGeometry x="120" y="460" width="91" height="30" as="geometry" />
        </mxCell>
        <mxCell id="B55D7Bt2RnhnYhkycpw2-73" value="&lt;b&gt;DMS-App-Node1&lt;/b&gt;" style="text;html=1;strokeColor=none;fillColor=none;align=center;verticalAlign=middle;whiteSpace=wrap;rounded=0;" parent="B55D7Bt2RnhnYhkycpw2-2" vertex="1">
          <mxGeometry x="115" y="298" width="110" height="30" as="geometry" />
        </mxCell>
        <mxCell id="B55D7Bt2RnhnYhkycpw2-74" value="&lt;b&gt;DMS-App-Node2&lt;/b&gt;" style="text;html=1;strokeColor=none;fillColor=none;align=center;verticalAlign=middle;whiteSpace=wrap;rounded=0;" parent="B55D7Bt2RnhnYhkycpw2-2" vertex="1">
          <mxGeometry x="470" y="308" width="100" height="30" as="geometry" />
        </mxCell>
        <mxCell id="B55D7Bt2RnhnYhkycpw2-76" value="&lt;b&gt;HVL-DMS-ELB&lt;/b&gt;" style="text;html=1;strokeColor=none;fillColor=none;align=center;verticalAlign=middle;whiteSpace=wrap;rounded=0;" parent="B55D7Bt2RnhnYhkycpw2-2" vertex="1">
          <mxGeometry x="211" y="61" width="100" height="30" as="geometry" />
        </mxCell>
        <mxCell id="B55D7Bt2RnhnYhkycpw2-84" value="Internet gateway" style="text;html=1;strokeColor=none;fillColor=none;align=center;verticalAlign=middle;whiteSpace=wrap;rounded=0;" parent="B55D7Bt2RnhnYhkycpw2-2" vertex="1">
          <mxGeometry x="176.5" y="23" width="100" height="30" as="geometry" />
        </mxCell>
        <mxCell id="B55D7Bt2RnhnYhkycpw2-85" value="" style="endArrow=classic;html=1;rounded=0;exitX=0.913;exitY=-0.007;exitDx=0;exitDy=0;exitPerimeter=0;" parent="B55D7Bt2RnhnYhkycpw2-2" source="B55D7Bt2RnhnYhkycpw2-16" edge="1">
          <mxGeometry width="50" height="50" relative="1" as="geometry">
            <mxPoint x="500" y="590" as="sourcePoint" />
            <mxPoint x="520" y="500" as="targetPoint" />
          </mxGeometry>
        </mxCell>
        <mxCell id="B55D7Bt2RnhnYhkycpw2-86" value="" style="endArrow=classic;html=1;rounded=1;entryX=1.007;entryY=0.706;entryDx=0;entryDy=0;exitX=0.25;exitY=0;exitDx=0;exitDy=0;entryPerimeter=0;" parent="B55D7Bt2RnhnYhkycpw2-2" source="B55D7Bt2RnhnYhkycpw2-16" target="B55D7Bt2RnhnYhkycpw2-69" edge="1">
          <mxGeometry width="50" height="50" relative="1" as="geometry">
            <mxPoint x="40" y="620" as="sourcePoint" />
            <mxPoint x="90" y="570" as="targetPoint" />
            <Array as="points">
              <mxPoint x="260" y="320" />
            </Array>
          </mxGeometry>
        </mxCell>
        <mxCell id="B55D7Bt2RnhnYhkycpw2-88" value="" style="endArrow=classic;startArrow=classic;html=1;rounded=1;exitX=1;exitY=0.5;exitDx=0;exitDy=0;entryX=0;entryY=0.25;entryDx=0;entryDy=0;" parent="B55D7Bt2RnhnYhkycpw2-2" source="B55D7Bt2RnhnYhkycpw2-69" target="B55D7Bt2RnhnYhkycpw2-61" edge="1">
          <mxGeometry width="50" height="50" relative="1" as="geometry">
            <mxPoint x="330" y="320" as="sourcePoint" />
            <mxPoint x="380" y="270" as="targetPoint" />
          </mxGeometry>
        </mxCell>
        <mxCell id="B55D7Bt2RnhnYhkycpw2-89" value="" style="endArrow=classic;html=1;rounded=1;entryX=0.5;entryY=1;entryDx=0;entryDy=0;entryPerimeter=0;" parent="B55D7Bt2RnhnYhkycpw2-2" target="B55D7Bt2RnhnYhkycpw2-21" edge="1">
          <mxGeometry width="50" height="50" relative="1" as="geometry">
            <mxPoint x="345" y="290" as="sourcePoint" />
            <mxPoint x="370" y="190" as="targetPoint" />
          </mxGeometry>
        </mxCell>
        <mxCell id="B55D7Bt2RnhnYhkycpw2-91" value="" style="endArrow=none;html=1;rounded=1;entryX=0.25;entryY=0;entryDx=0;entryDy=0;" parent="B55D7Bt2RnhnYhkycpw2-2" target="B55D7Bt2RnhnYhkycpw2-61" edge="1">
          <mxGeometry width="50" height="50" relative="1" as="geometry">
            <mxPoint x="136" y="130" as="sourcePoint" />
            <mxPoint x="522.96" y="220" as="targetPoint" />
            <Array as="points">
              <mxPoint x="490" y="130" />
            </Array>
          </mxGeometry>
        </mxCell>
        <mxCell id="B55D7Bt2RnhnYhkycpw2-93" value="&lt;b&gt;Port - 3306&lt;/b&gt;" style="text;html=1;strokeColor=none;fillColor=none;align=center;verticalAlign=middle;whiteSpace=wrap;rounded=0;" parent="B55D7Bt2RnhnYhkycpw2-2" vertex="1">
          <mxGeometry x="520" y="550" width="70" height="30" as="geometry" />
        </mxCell>
        <mxCell id="B55D7Bt2RnhnYhkycpw2-97" value="&lt;b&gt;Port - 3306&lt;/b&gt;" style="text;html=1;strokeColor=none;fillColor=none;align=center;verticalAlign=middle;whiteSpace=wrap;rounded=0;" parent="B55D7Bt2RnhnYhkycpw2-2" vertex="1">
          <mxGeometry x="260" y="550" width="70" height="30" as="geometry" />
        </mxCell>
        <mxCell id="B55D7Bt2RnhnYhkycpw2-98" value="" style="endArrow=none;html=1;rounded=1;" parent="B55D7Bt2RnhnYhkycpw2-2" edge="1">
          <mxGeometry width="50" height="50" relative="1" as="geometry">
            <mxPoint x="240" y="444" as="sourcePoint" />
            <mxPoint x="136" y="170" as="targetPoint" />
            <Array as="points">
              <mxPoint x="296" y="444" />
              <mxPoint x="296" y="170" />
              <mxPoint x="236" y="170" />
            </Array>
          </mxGeometry>
        </mxCell>
        <mxCell id="NSeuikukPgtGO4ZoCnCu-3" value="&lt;b&gt;r5.2xlarge&lt;/b&gt;" style="text;html=1;strokeColor=none;fillColor=none;align=center;verticalAlign=middle;whiteSpace=wrap;rounded=0;" vertex="1" parent="B55D7Bt2RnhnYhkycpw2-2">
          <mxGeometry x="465" y="340" width="110" height="30" as="geometry" />
        </mxCell>
        <mxCell id="NSeuikukPgtGO4ZoCnCu-4" value="&lt;b&gt;r5.2xlarge&lt;/b&gt;" style="text;html=1;strokeColor=none;fillColor=none;align=center;verticalAlign=middle;whiteSpace=wrap;rounded=0;" vertex="1" parent="B55D7Bt2RnhnYhkycpw2-2">
          <mxGeometry x="115" y="325" width="110" height="30" as="geometry" />
        </mxCell>
        <mxCell id="NSeuikukPgtGO4ZoCnCu-5" value="" style="sketch=0;outlineConnect=0;fontColor=#232F3E;gradientColor=none;fillColor=#D45B07;strokeColor=none;dashed=0;verticalLabelPosition=bottom;verticalAlign=top;align=center;html=1;fontSize=12;fontStyle=0;aspect=fixed;pointerEvents=1;shape=mxgraph.aws4.r5_instance;" vertex="1" parent="B55D7Bt2RnhnYhkycpw2-2">
          <mxGeometry x="140" y="412" width="48" height="48" as="geometry" />
        </mxCell>
        <mxCell id="NSeuikukPgtGO4ZoCnCu-6" value="&lt;b&gt;r5.2xlarge&lt;/b&gt;" style="text;html=1;strokeColor=none;fillColor=none;align=center;verticalAlign=middle;whiteSpace=wrap;rounded=0;" vertex="1" parent="B55D7Bt2RnhnYhkycpw2-2">
          <mxGeometry x="110.5" y="474" width="110" height="30" as="geometry" />
        </mxCell>
        <mxCell id="B55D7Bt2RnhnYhkycpw2-45" value="" style="endArrow=classic;html=1;rounded=1;entryX=0.5;entryY=1;entryDx=0;entryDy=0;entryPerimeter=0;" parent="1" target="B55D7Bt2RnhnYhkycpw2-44" edge="1">
          <mxGeometry width="50" height="50" relative="1" as="geometry">
            <mxPoint x="700" y="838" as="sourcePoint" />
            <mxPoint x="760" y="690" as="targetPoint" />
            <Array as="points">
              <mxPoint x="740" y="838" />
            </Array>
          </mxGeometry>
        </mxCell>
        <mxCell id="B55D7Bt2RnhnYhkycpw2-48" value="" style="sketch=0;outlineConnect=0;fontColor=#232F3E;gradientColor=none;fillColor=#232F3D;strokeColor=none;dashed=0;verticalLabelPosition=bottom;verticalAlign=top;align=center;html=1;fontSize=12;fontStyle=0;aspect=fixed;pointerEvents=1;shape=mxgraph.aws4.users;" parent="1" vertex="1">
          <mxGeometry x="400" y="10" width="78" height="78" as="geometry" />
        </mxCell>
        <mxCell id="B55D7Bt2RnhnYhkycpw2-49" value="" style="edgeStyle=orthogonalEdgeStyle;html=1;endArrow=block;elbow=vertical;startArrow=none;endFill=1;strokeColor=#545B64;rounded=1;exitX=0.5;exitY=0;exitDx=0;exitDy=0;exitPerimeter=0;" parent="1" source="yldp62qtClLwb7akA_jN-5" target="B55D7Bt2RnhnYhkycpw2-48" edge="1">
          <mxGeometry width="100" relative="1" as="geometry">
            <mxPoint x="300" y="50" as="sourcePoint" />
            <mxPoint x="370" y="50" as="targetPoint" />
            <Array as="points">
              <mxPoint x="375" y="50" />
            </Array>
          </mxGeometry>
        </mxCell>
        <mxCell id="B55D7Bt2RnhnYhkycpw2-50" value="" style="outlineConnect=0;dashed=0;verticalLabelPosition=bottom;verticalAlign=top;align=center;html=1;shape=mxgraph.aws3.corporate_data_center;fillColor=#7D7C7C;gradientColor=none;" parent="1" vertex="1">
          <mxGeometry x="135" y="20" width="65" height="68" as="geometry" />
        </mxCell>
        <mxCell id="B55D7Bt2RnhnYhkycpw2-80" value="&lt;b&gt;dms.havells.com&lt;/b&gt;" style="text;html=1;strokeColor=none;fillColor=none;align=center;verticalAlign=middle;whiteSpace=wrap;rounded=0;" parent="1" vertex="1">
          <mxGeometry x="470" y="60" width="80" height="30" as="geometry" />
        </mxCell>
        <mxCell id="B55D7Bt2RnhnYhkycpw2-81" value="&lt;b&gt;Port 443&lt;/b&gt;" style="text;html=1;strokeColor=none;fillColor=none;align=center;verticalAlign=middle;whiteSpace=wrap;rounded=0;" parent="1" vertex="1">
          <mxGeometry x="350" y="20" width="60" height="30" as="geometry" />
        </mxCell>
        <mxCell id="B55D7Bt2RnhnYhkycpw2-82" value="Port 22" style="text;html=1;strokeColor=none;fillColor=none;align=center;verticalAlign=middle;whiteSpace=wrap;rounded=0;" parent="1" vertex="1">
          <mxGeometry x="110" y="80" width="60" height="30" as="geometry" />
        </mxCell>
        <mxCell id="B55D7Bt2RnhnYhkycpw2-83" value="&lt;b&gt;BOTREE&lt;br&gt;DATACENTER&lt;/b&gt;" style="text;html=1;strokeColor=none;fillColor=none;align=center;verticalAlign=middle;whiteSpace=wrap;rounded=0;" parent="1" vertex="1">
          <mxGeometry x="60" y="30" width="60" height="30" as="geometry" />
        </mxCell>
        <mxCell id="B55D7Bt2RnhnYhkycpw2-90" value="" style="endArrow=classic;html=1;rounded=0;entryX=0.5;entryY=1;entryDx=0;entryDy=0;entryPerimeter=0;exitX=0.25;exitY=0;exitDx=0;exitDy=0;" parent="1" source="B55D7Bt2RnhnYhkycpw2-69" target="B55D7Bt2RnhnYhkycpw2-50" edge="1">
          <mxGeometry width="50" height="50" relative="1" as="geometry">
            <mxPoint x="150" y="310" as="sourcePoint" />
            <mxPoint x="200" y="260" as="targetPoint" />
          </mxGeometry>
        </mxCell>
        <mxCell id="1hkkDkTIQHTTeldb6SN9-2" value="" style="sketch=0;points=[[0,0,0],[0.25,0,0],[0.5,0,0],[0.75,0,0],[1,0,0],[0,1,0],[0.25,1,0],[0.5,1,0],[0.75,1,0],[1,1,0],[0,0.25,0],[0,0.5,0],[0,0.75,0],[1,0.25,0],[1,0.5,0],[1,0.75,0]];outlineConnect=0;fontColor=#232F3E;gradientColor=#945DF2;gradientDirection=north;fillColor=#5A30B5;strokeColor=#ffffff;dashed=0;verticalLabelPosition=bottom;verticalAlign=top;align=center;html=1;fontSize=12;fontStyle=0;aspect=fixed;shape=mxgraph.aws4.resourceIcon;resIcon=mxgraph.aws4.route_53;" parent="1" vertex="1">
          <mxGeometry x="255" y="110" width="38" height="38" as="geometry" />
        </mxCell>
        <mxCell id="1hkkDkTIQHTTeldb6SN9-3" value="&lt;a data-awsui-focus-visible=&quot;true&quot; aria-disabled=&quot;false&quot; class=&quot;awsui_anchor_1kosq_3zese_104&quot; href=&quot;https://us-east-1.console.aws.amazon.com/route53/v2/home#Home&quot;&gt;&lt;span class=&quot;awsui_text_1kosq_3zese_161&quot;&gt;Route 53&lt;/span&gt;&lt;/a&gt;" style="text;html=1;strokeColor=none;fillColor=none;align=center;verticalAlign=middle;whiteSpace=wrap;rounded=0;" parent="1" vertex="1">
          <mxGeometry x="244" y="80" width="60" height="30" as="geometry" />
        </mxCell>
        <mxCell id="yldp62qtClLwb7akA_jN-6" value="" style="edgeStyle=orthogonalEdgeStyle;html=1;endArrow=none;elbow=vertical;startArrow=none;endFill=1;strokeColor=#545B64;rounded=1;exitX=0.5;exitY=0;exitDx=0;exitDy=0;exitPerimeter=0;" parent="1" source="B55D7Bt2RnhnYhkycpw2-21" target="yldp62qtClLwb7akA_jN-5" edge="1">
          <mxGeometry width="100" relative="1" as="geometry">
            <mxPoint x="374.5" y="250" as="sourcePoint" />
            <mxPoint x="400" y="50" as="targetPoint" />
            <Array as="points" />
          </mxGeometry>
        </mxCell>
        <mxCell id="yldp62qtClLwb7akA_jN-8" value="&lt;b&gt;WAF&lt;/b&gt;" style="text;html=1;strokeColor=none;fillColor=none;align=center;verticalAlign=middle;whiteSpace=wrap;rounded=0;" parent="1" vertex="1">
          <mxGeometry x="380" y="110" width="60" height="30" as="geometry" />
        </mxCell>
        <mxCell id="yldp62qtClLwb7akA_jN-10" value="" style="sketch=0;outlineConnect=0;fontColor=#232F3E;gradientColor=none;fillColor=#232F3D;strokeColor=none;dashed=0;verticalLabelPosition=bottom;verticalAlign=top;align=center;html=1;fontSize=12;fontStyle=0;aspect=fixed;pointerEvents=1;shape=mxgraph.aws4.users;" parent="1" vertex="1">
          <mxGeometry x="550" y="7" width="78" height="78" as="geometry" />
        </mxCell>
        <mxCell id="yldp62qtClLwb7akA_jN-11" value="" style="edgeStyle=orthogonalEdgeStyle;html=1;endArrow=none;elbow=vertical;startArrow=block;startFill=1;strokeColor=#545B64;rounded=0;entryX=0.75;entryY=0;entryDx=0;entryDy=0;" parent="1" target="B55D7Bt2RnhnYhkycpw2-61" edge="1">
          <mxGeometry width="100" relative="1" as="geometry">
            <mxPoint x="580" y="80" as="sourcePoint" />
            <mxPoint x="630" y="280" as="targetPoint" />
          </mxGeometry>
        </mxCell>
        <mxCell id="yldp62qtClLwb7akA_jN-12" value="&lt;b&gt;other service&lt;br&gt;Ports - 8080,8081,8021,&lt;br&gt;8083,2020&lt;br&gt;&lt;/b&gt;" style="text;html=1;strokeColor=none;fillColor=none;align=left;verticalAlign=middle;whiteSpace=wrap;rounded=0;" parent="1" vertex="1">
          <mxGeometry x="630" y="10" width="130" height="90" as="geometry" />
        </mxCell>
        <mxCell id="NSeuikukPgtGO4ZoCnCu-8" value="&lt;span&gt;&lt;font style=&quot;font-size: 18px;&quot;&gt;HAVELLS&lt;/font&gt;&lt;/span&gt;" style="text;html=1;strokeColor=none;fillColor=none;align=center;verticalAlign=middle;whiteSpace=wrap;rounded=0;fontStyle=5" vertex="1" parent="1">
          <mxGeometry x="-30" y="-40" width="110" height="50" as="geometry" />
        </mxCell>
        <mxCell id="NSeuikukPgtGO4ZoCnCu-9" value="&lt;font style=&quot;font-size: 4px;&quot;&gt;END&lt;/font&gt;" style="text;html=1;align=center;verticalAlign=middle;resizable=0;points=[];autosize=1;strokeColor=none;fillColor=none;fontSize=18;" vertex="1" parent="1">
          <mxGeometry x="880" y="1080" width="30" height="40" as="geometry" />
        </mxCell>
      </root>
    </mxGraphModel>
  </diagram>
</mxfile>
